<svg width="1920" height="568" viewBox="0 0 1920 568" fill="none" xmlns="http://www.w3.org/2000/svg">
<path d="M20.5255 18.408C51.1535 18.408 10.547 21.0022 6.79485 17.25C0.819342 11.2745 5.89103 16.9192 11.5923 16.9192C19.918 16.9192 27.5302 14.3794 35.4142 13.9414C43.2198 13.5078 58.5353 13.9414 71.1469 13.9414C74.1247 13.9414 77.1024 13.9414 80.0801 13.9414C87.2078 13.9414 76.2854 15.4185 74.7864 15.7611C66.61 17.63 57.9859 16.9192 49.5584 16.9192C38.4423 16.9192 22.6233 20.1223 13.8256 13.2797C11.699 11.6257 7.45793 12.4526 4.89241 12.4526C3.04159 12.4526 -4.7067 8.1809 -0.0704774 8.81311C5.83402 9.61827 7.13086 14.3561 12.3367 15.513C16.5163 16.4418 17.7554 18.929 17.5478 22.8746C17.2053 29.3808 11.1031 36.3276 8.94543 42.5607C7.81329 45.8314 8.61457 50.7184 8.61457 54.1408C8.61457 57.1768 7.12571 66.1949 7.12571 66.0517C7.12571 55.8164 5.63684 45.2678 5.63684 34.7855C5.63684 26.3238 5.32029 22.8746 15.3145 22.8746C21.9819 22.8746 20.5255 53.5297 20.5255 59.3518C20.5255 62.4514 19.0652 80.4241 17.6305 68.9468C16.5555 60.347 17.2253 50.6053 17.5478 41.899C17.755 36.3035 19.2609 25.7845 23.1724 21.7166C24.773 20.052 28.5909 16.9192 30.9476 16.9192C32.2974 16.9192 22.9111 21.9252 22.0144 22.8746C11.8107 33.6785 7.12571 50.9179 7.12571 65.3073C7.12571 69.8799 5.03053 80.1914 10.0207 81.0231C11.3088 81.2378 12.5385 83.3287 10.7652 83.8354C10.1799 84.0026 7.7492 83.9181 8.03557 83.9181C11.4269 83.9181 14.8182 83.9181 18.2095 83.9181C22.1627 83.9181 24.6829 80.9404 28.7143 80.9404C31.692 80.9404 34.6697 80.9404 37.6475 80.9404C45.8362 80.9404 54.025 80.9404 62.2138 80.9404C79.2112 80.9404 59.7971 80.9404 53.2806 80.9404C45.2297 80.9404 37.1787 80.9404 29.1278 80.9404C23.8285 80.9404 15.637 81.8117 11.5923 85.407C7.75827 88.815 6.69686 87.0398 11.5923 86.8959C15.3065 86.7866 19.0424 86.8959 22.7588 86.8959C37.6756 86.8959 52.9449 83.9181 67.4248 83.9181C70.1209 83.9181 73.3522 78.7376 70.2371 78.0454C67.1202 77.3527 63.1933 77.9627 59.9805 77.9627C53.7768 77.9627 47.5732 77.9627 41.3696 77.9627C37.9662 77.9627 31.607 74.5693 29.1278 72.3381C27.013 70.4347 26.481 66.0517 26.481 68.6986C26.481 71.2449 27.9206 74.8069 30.9476 74.9849C37.2377 75.3549 43.6702 74.9849 49.972 74.9849C53.5324 74.9849 57.169 75.1941 60.7249 74.9849C63.2359 74.8372 61.4853 69.6689 64.5298 68.285C70.7572 65.4544 77.1024 60.8926 77.1024 53.3964C77.1024 49.9224 77.1024 46.4483 77.1024 42.9743C77.1024 38.8506 74.8439 37.459 74.2074 33.9584C73.5169 30.1605 74.1247 18.5182 74.1247 22.3783C74.1247 26.8227 76.6941 29.1461 77.0197 33.3794C77.6593 41.694 77.1024 50.2651 77.1024 58.6074C77.1024 62.0648 76.9106 65.5774 77.1024 69.0295C77.1975 70.7409 82.5905 74.2792 78.5913 74.9849C74.8693 75.6418 74.1247 79.4196 74.1247 82.4293C74.1247 86.3721 76.8455 85.407 80.0801 85.407C85.9632 85.407 95.5715 84.4774 100.924 82.0984C106.276 79.7198 113.669 80.9404 119.535 80.9404C129.027 80.9404 98.0183 80.9404 105.474 80.9404C112.146 80.9404 118.818 80.9404 125.491 80.9404C140.627 80.9404 155.764 80.9404 170.901 80.9404C183.729 80.9404 199.333 78.5724 211.431 82.7601C223.652 86.9903 239.066 85.407 252.127 85.407C265.807 85.407 279.652 84.7696 292.905 86.9786C307.71 89.446 319.373 86.525 334.015 82.7601C342.299 80.6297 353.899 83.7997 361.476 80.6095C368.576 77.6199 374.491 77.9627 382.32 77.9627C388.155 77.9627 402.433 75.4023 407.3 79.7824C409.89 82.1136 421.083 82.4293 424.835 82.4293C430.123 82.4293 440.819 80.5194 445.597 83.1737C449.205 85.1785 449.872 84.4711 453.041 87.6403C454.571 89.1699 456.943 93.6471 459.079 94.2575C464.365 95.7677 469.444 95.8291 475.374 95.8291C482.704 95.8291 488.623 92.8513 495.474 92.8513C499.119 92.8513 501.617 89.8736 505.151 89.8736C509.149 89.8736 513.147 89.8736 517.145 89.8736C518.177 89.8736 526.575 89.1839 526.575 90.7007C526.575 93.019 515.599 94.1245 513.092 95.0019C501.552 99.0409 481.652 95.8291 469.419 95.8291C460.701 95.8291 450.383 94.2475 442.702 90.2045C438.34 87.9087 437.169 86.8959 443.363 86.8959C449.595 86.8959 455.826 86.8959 462.057 86.8959C472.7 86.8959 483.342 86.8959 493.985 86.8959C503.028 86.8959 512.072 86.8959 521.115 86.8959C529.005 86.8959 535.989 89.8736 543.862 89.8736C547.812 89.8736 561.888 89.8736 550.479 89.8736C544.863 89.8736 537.427 88.5753 532.116 90.618C530.38 91.2858 526.264 94.3402 530.462 94.3402C537.906 94.3402 545.351 94.3402 552.795 94.3402C560.197 94.3402 567.779 91.3625 575.542 91.3625C579.215 91.3625 594.588 93.6606 597.875 91.0316C601.676 87.9904 605.711 78.4143 599.694 74.6541C595.873 72.266 596.668 61.1045 594.897 57.1185C592.038 50.6853 592.25 44.9297 592.25 37.6806C592.25 34.7856 590.699 16.1925 593.077 15.513C597.444 14.2654 597.405 32.049 598.95 35.4473C601.626 41.3341 601.183 46.8076 601.183 53.3964C601.183 56.4208 602.138 72.5072 599.364 63.074C596.023 51.7159 593.739 43.5764 593.739 31.8078C593.739 28.9533 598.185 15.3 600.025 22.0475C600.807 24.9137 600.599 33.0266 605.65 30.6498C608.932 29.1053 605.465 25.2101 607.47 23.2055C608.443 22.2322 614.576 21.3858 616.072 21.3858C619.549 21.3858 625.303 18.408 619.05 18.408C611.113 18.408 602.908 15.4303 594.483 15.4303C585.578 15.4303 576.672 15.4303 567.766 15.4303C564.534 15.4303 552.553 13.6857 550.562 16.1747C545.738 22.2041 533.965 19.8969 526.74 19.8969C511.355 19.8969 495.97 19.8969 480.585 19.8969C472.648 19.8969 462.572 21.7457 454.944 19.566C449.882 18.1199 447.322 17.8569 443.363 15.7611C440.564 14.2788 438.64 12.4526 435.175 12.4526C418.483 12.4526 400.747 12.5536 384.471 15.513C374.878 17.2571 373.903 23.8035 362.965 19.8969C355.602 17.2674 346.917 18.408 339.143 18.408C330.977 18.408 323.545 16.9192 315.321 16.9192C309.475 16.9192 297.529 17.5746 292.988 13.9414C288.814 10.6025 278.541 12.4526 273.302 12.4526C264.258 12.4526 255.215 12.4526 246.171 12.4526C240.161 12.4526 234.15 12.4526 228.14 12.4526C224.197 12.4526 220.254 12.4526 216.311 12.4526C212.08 12.4526 210.141 15.4303 205.889 15.4303C197.816 15.4303 189.147 16.9192 180.661 16.9192C175.057 16.9192 165.527 18.8317 160.479 16.5883C148.048 11.0634 132.683 12.4526 119.122 12.4526C109.98 12.4526 105.967 15.1741 97.9465 18.7389C93.8346 20.5664 91.6154 28.2839 90.4195 32.4695C88.2152 40.1844 86.0428 27.7492 91.2466 23.7018C93.9643 21.588 102.249 15.4303 94.2244 15.4303C88.9298 15.4303 93.4486 18.408 96.7058 18.408C105.49 18.408 101.419 20.8913 97.2021 25.1079C94.0506 28.2594 90.8242 32.5569 88.4343 36.2744C85.9603 40.1228 88.8212 43.0461 89.0133 46.6965C89.4301 54.6144 88.5735 62.6019 89.0133 70.5183C89.1414 72.824 93.8305 76.5329 96.1268 74.6541C98.942 72.3507 97.9465 66.2023 97.9465 63.074C97.9465 54.7229 97.1994 48.7226 101.586 41.899C105.172 36.3206 109.938 24.3635 116.557 24.3635C118.017 24.3635 129.379 20.1051 129.13 19.2352C128.621 17.4547 119.652 18.408 117.964 18.408C112.779 18.408 110.205 17.4854 107.624 22.1302C105.313 26.2909 100.924 33.2995 100.924 38.5077C100.924 44.5091 98.2359 60.1535 102.413 64.5629C104.775 67.0561 116.822 78.112 115.813 69.0295C115.017 61.8631 100.997 60.8947 105.722 49.6742C105.928 49.185 109.15 26.7631 111.015 29.1609C112.301 30.8142 106.88 39.3291 106.88 41.899C106.88 47.1078 107.6 52.337 109.857 57.1185C113.485 64.8007 117.675 70.2915 124.746 73.8269C131.028 76.968 144.578 76.4738 151.546 76.4738C156.911 76.4738 167.923 78.5729 167.923 69.0295C167.923 61.6832 169.247 54.5112 170.818 47.4409C173.247 36.5134 158.315 22.8746 176.112 22.8746C189.273 22.8746 228.728 24.3635 215.567 24.3635C204.953 24.3635 208.523 30.1123 204.814 38.5904C204.082 40.2637 207.978 36.7603 209.611 35.9436C212.425 34.5366 215.903 32.9895 217.387 30.319C219.097 27.2401 220.823 24.3635 224.5 24.3635C228.249 24.3635 227.266 21.5394 224.5 21.3858C214.624 20.8371 204.886 22.8746 195.467 22.8746C186.317 22.8746 184.301 26.9324 184.301 34.8683C184.301 41.5913 184.444 45.8048 181.323 51.8248C177.425 59.3433 179.836 54.0607 182.812 59.2691C183.755 60.9194 187.2 68.3465 188.106 68.864C191.206 70.6354 192.55 67.5406 185.872 67.5406C181.72 67.5406 159.437 72.6212 160.727 77.1355C161.488 79.8001 171.288 76.4617 172.721 75.3158C175.682 72.9469 180.918 70.6865 184.632 69.3603C188.323 68.0419 194.573 69.0496 197.701 67.2097C204.875 62.9896 183.775 46.2071 188.767 38.0941C190.683 34.9818 190.107 31.5363 194.723 31.8078C198.362 32.0219 195.642 45.7203 195.054 47.8545C193.459 53.6353 199.332 56.8901 203.656 58.9383C207.429 60.7256 207.365 62.1698 210.356 64.5629C214.378 67.7805 226.601 75.1835 215.732 76.3911C201.546 77.9674 205.145 66.1984 205.145 55.6297C205.145 51.8433 203.899 44.825 205.972 41.5682C209.771 35.5976 211.1 37.1289 211.1 42.8916C211.1 49.6191 211.1 56.3465 211.1 63.074C211.1 82.4551 234.149 79.4515 248.322 79.4515C252.61 79.4515 263.81 80.6209 264.7 74.9849C265.774 68.1797 275.122 67.1682 275.122 60.8407C275.122 54.8282 275.957 47.5317 271.399 42.9743C266.41 37.9844 263.211 33.5019 263.211 26.5968C263.211 17.0026 254.482 18.408 247.578 18.408C244.14 18.408 232.729 16.1063 233.764 15.7611C241.379 13.223 253.422 15.4303 261.391 15.4303C263.149 15.4303 269.045 14.4824 270.324 15.7611C272.552 17.989 266.188 20.7931 266.188 22.8746C266.188 27.2797 268.721 28.7788 270.324 31.8078C271.484 33.9983 270.655 38.3016 270.655 40.741C270.655 44.7113 270.655 48.6816 270.655 52.6519C270.655 56.552 272.769 57.3253 273.55 60.8407C274.949 67.1343 276.352 72.8256 284.717 70.4356C285.322 70.2627 281.077 48.3004 281.077 44.4632C281.077 39.2509 281.105 31.4386 282.814 26.5968C283.705 24.0736 288.356 22.3914 288.356 19.8969C288.356 17.7418 285.882 18.3929 284.799 19.2352C280.491 22.5857 264.559 39.95 279.588 40.741C285.208 41.0368 282.566 56.8009 282.566 61.5851C282.566 66.2891 282.249 68.5188 285.544 72.0072C286.829 73.3678 289.985 81.8186 292.657 76.4738C293.976 73.8353 291.816 64.5802 291.168 61.5851C289.986 56.1149 289.85 50.8068 290.01 45.2076C290.256 36.5938 297.928 30.6899 301.921 23.7018C302.19 23.2308 303.41 40.9218 303.41 44.5459C303.41 53.3139 306.388 60.7322 306.388 69.7739C306.388 78.4922 307.653 81.5691 317.554 79.3688C325.174 77.6756 315.601 69.5981 315.321 64.5629C314.731 53.9386 309.234 32.2111 318.63 24.6943C320.927 22.8562 324.878 23.4779 327.232 21.3858C329.772 19.1282 331.31 18.408 334.676 18.408C342.085 18.408 351.21 15.8574 354.776 23.7018C355.823 26.005 356.438 30.319 359.243 30.319C363.472 30.319 362.965 31.7879 362.965 35.6127C362.965 42.6474 363.504 47.6665 366.687 53.3964C369.123 57.7822 369.996 64.5607 368.837 69.7739C368.275 72.3053 364.146 72.1844 362.303 73.4134C360.308 74.7432 365.85 69.6054 365.942 67.2097C366.23 59.7294 366.217 52.0334 369.251 45.2076C372.026 38.964 372.32 32.3468 375.206 25.8524C378.019 19.5233 374.954 36.6445 374.876 38.9213C374.686 44.4123 372.868 48.7929 371.567 54.1408C371.173 55.7607 368.743 64.168 370.74 65.7209C373.93 68.2018 374.876 55.7919 374.876 54.8025C374.876 45.7515 383.809 20.1099 383.809 29.1609C383.809 42.6826 374.876 53.419 374.876 66.9616C374.876 69.7508 379.435 77.1719 380.748 71.2628C381.863 66.2476 380.831 60.0168 380.831 54.8852C380.831 45.97 380.16 37.4827 384.553 29.5745C386.108 26.7758 388.983 25.2356 389.847 22.2129C390.341 20.4834 391.253 33.8521 391.253 35.4473C391.253 42.8274 389.005 55.7064 392.742 62.2469C395.246 66.6288 395.72 61.4588 395.72 59.4346C395.72 53.8342 394.231 48.0865 394.231 42.2299C394.231 34.5386 392.903 21.3858 403.164 21.3858C407.709 21.3858 419.064 15.4303 409.12 15.4303C398.971 15.4303 401.675 29.483 401.675 36.2744C401.675 45.1255 399.15 52.9807 398.697 61.5851C398.559 64.219 398.104 67.4148 399.855 69.3603C401.334 71.003 404.577 75.9245 406.225 76.4738C412.034 78.4102 411.302 74.3379 408.375 70.4356C405.669 66.8279 406.142 63.6113 406.142 59.2691C406.142 52.8188 407.46 44.814 406.059 38.5077C405.273 34.9689 402.008 22.6083 405.397 19.8969C407.737 18.0254 409.791 18.408 412.842 18.408C417.145 18.408 415.789 15.4303 419.872 15.4303C426.615 15.4303 435.031 15.1375 440.386 19.8969C444.399 23.4641 454.648 21.1177 459.741 21.3858C468.824 21.8638 465.696 56.3628 465.696 63.8184C465.696 67.8346 456.974 82.6882 463.38 80.8577C470.481 78.829 465.666 61.3199 468.012 56.2914C471.465 48.8935 474.63 38.1944 474.63 29.9054C474.63 25.2468 473.141 39.1429 473.141 43.8015C473.141 50.7115 476.118 57.1986 476.118 64.5629C476.118 67.5406 476.118 70.5183 476.118 73.4961C476.118 77.7421 476.118 65.004 476.118 60.758C476.118 50.8877 476.496 41.2587 477.607 31.8078C477.949 28.9045 480.832 27.5352 475.788 27.3412C468.141 27.0471 481.353 24.2407 483.563 24.3635C485.565 24.4747 477.582 67.1137 476.036 76.3911C475.512 79.5351 473.715 82.5788 474.712 86.0687C475.141 87.57 477.653 86.8716 478.269 85.9033C479.848 83.4223 479.096 79.1967 479.096 76.3911C479.096 63.4038 481.439 55.2448 487.202 43.7187C488.86 40.4038 491.907 34.0659 494.729 31.8078C499.489 28.0004 493.096 43.6536 492.579 45.2903C490.837 50.8057 483.204 76.9422 488.36 82.0984C491.549 85.2871 502.355 80.9404 505.896 80.9404C513.916 80.9404 499.94 79.3484 499.94 73.4961C499.94 66.8791 496.963 62.9193 496.963 55.6297C496.963 50.7762 494.82 37.3091 498.452 34.0411C500.206 32.4622 503.711 26.2597 502.753 28.4165C500.271 34.0009 491.937 45.4851 496.384 51.9075C500.382 57.6835 505.896 66.8614 505.896 74.3232C505.896 84.7085 509.737 83.9181 519.296 83.9181C523.77 83.9181 542.881 80.642 530.049 80.9404C524.313 81.0738 520.325 82.3311 514.829 83.5873C507.343 85.2983 507.494 83.3106 504.407 78.2935C500.813 72.4537 497.229 61.9505 496.963 55.2988C496.652 47.5306 499.539 42.0027 499.94 34.7855C500.259 29.0498 508.41 24.7349 512.596 22.8746C518.922 20.0628 547.584 7.66931 547.584 21.4685C547.584 30.0954 550.562 35.938 550.562 44.4632C550.562 50.6668 550.562 56.8704 550.562 63.074C550.562 66.9732 552.22 80.9404 549.073 80.9404C541.73 80.9404 537.576 86.8959 529.718 86.8959C522.273 86.8959 514.829 86.8959 507.385 86.8959C501.706 86.8959 517.942 86.2806 520.454 85.407C526.802 83.1989 534.24 80.7272 540.801 79.5342C549.433 77.9649 555.792 79.8747 559.495 69.6912C562.706 60.8608 564.347 50.6044 560.239 41.5682C558.561 37.8752 561.056 21.9244 563.217 26.6795C565.68 32.097 563.962 41.4018 563.962 47.3582C563.962 54.968 563.962 62.5777 563.962 70.1875C563.962 78.3089 569.485 76.618 574.384 80.9404C578.482 84.5567 582.203 64.991 580.67 61.5851C578.411 56.5658 565.54 45.4676 570.248 39.583C571.794 37.6504 574.082 32.8844 574.384 30.319C574.596 28.5118 576.955 28.0476 578.519 27.6721C581.37 26.9879 580.339 33.2084 580.339 34.7855C580.339 46.9544 580.409 58.9153 584.061 70.601C584.815 73.0115 585.636 78.286 587.122 80.196C588.557 82.0409 594.766 88.2193 594.401 88.2193C590.964 88.2193 584.026 82.8195 581.084 80.8577C577.564 78.5115 576.197 72.0053 575.211 68.2023C574.216 64.3657 572.895 52.576 572.895 56.5395C572.895 62.1892 571.406 67.7791 571.406 73.4961" stroke="white" stroke-width="15" stroke-linecap="round"/>
<path d="M5.63689 487.401C22.8493 484.478 38.2726 482.934 55.5139 482.934C61.7469 482.934 66.888 485.912 72.6359 485.912C79.8596 485.912 87.0834 485.912 94.3071 485.912C118.067 485.912 141.659 482.934 165.69 482.934C179.724 482.934 193.758 482.934 207.792 482.934C215.816 482.934 223.601 482.934 231.862 482.934C236.01 482.934 238.411 480.183 242.367 479.956C245.813 479.76 249.337 479.956 252.789 479.956C258.013 479.956 263.136 479.321 264.782 485.085C265.539 487.735 274.557 488.89 276.941 488.89C284.781 488.89 289.95 487.434 296.71 483.679C298.239 482.829 302.095 483.729 303.079 482.603C304.051 481.493 296.805 481.445 295.966 481.445C290.522 481.445 285.897 482.934 280.746 482.934C274.25 482.934 266.117 481.445 278.017 481.445C285.006 481.445 291.79 479.956 298.943 479.956C311.75 479.956 324.209 482.934 336.827 482.934C359.42 482.934 381.127 481.445 403.909 481.445C413.42 481.445 422.08 482.934 431.453 482.934C444.914 482.934 456.842 485.912 469.832 485.912C480.99 485.912 492.152 487.401 502.918 487.401C514.511 487.401 525.661 487.137 537.079 485.995C542.883 485.414 557.388 489.038 562.142 485.581C566.261 482.585 577.053 482.934 582.159 482.934C587.849 482.934 593.674 481.445 598.95 481.445C607.402 481.445 609.238 481.497 614.914 475.821C617.005 473.729 614.15 474.001 612.35 474.001C610.297 474.001 609.407 476.365 607.966 477.806C606.718 479.054 598.984 489.833 597.048 487.897C595.315 486.165 594.92 474.475 588.611 480.784C585.273 484.121 583.317 493.699 583.317 498.154C583.317 505.465 581.326 512.838 580.422 520.073C579.335 528.772 580.339 538.208 580.339 546.955C580.339 549.552 577.36 559.693 579.181 561.513C580.738 563.07 587.261 547.419 587.784 545.797C592.793 530.269 597.534 515.256 606.312 501.462C608.706 497.699 606.41 489.875 601.183 492.198C591.528 496.49 593.739 516.765 593.739 525.78C593.739 530.082 593.739 534.383 593.739 538.684C593.739 542.794 596.463 541.055 598.206 543.233C599.597 544.972 602.431 542.909 603.83 544.309C605.935 546.413 602.633 548.444 607.139 548.444C615.062 548.444 615.342 551.422 607.139 551.422C600.151 551.422 595.962 557.378 590.017 557.378C582.523 557.378 574.834 552.911 566.939 552.911C557.76 552.911 549.01 552.772 540.14 551.505C528.329 549.818 518.616 548.444 505.234 548.444C489.077 548.444 472.92 548.444 456.763 548.444C453.189 548.444 449.582 548.582 446.01 548.444C442.292 548.301 439.58 545.467 435.257 545.467C428.973 545.467 422.502 545.467 416.564 545.467C410.671 545.467 409.646 549.933 403.909 549.933C397.264 549.933 390.619 549.933 383.974 549.933C368.331 549.933 352.698 550.393 337.323 547.038C332.923 546.078 322.765 543.311 322.765 550.76C322.765 556.837 310.998 553.719 306.388 555.889C299.276 559.236 287.298 558.866 279.506 558.866C271.215 558.866 261.665 559.905 253.45 558.536C244.718 557.08 237.885 554.159 228.967 554.4C219.253 554.662 208.205 557.975 198.445 555.806C187.588 553.393 173.525 557.537 163.457 552.911C150.285 546.859 131.696 545.927 117.964 549.85C111.843 551.599 105.855 551.422 98.9392 551.422C94.3439 551.422 78.3501 553.213 75.6136 556.633C72.255 560.831 51.4976 554.44 48.3177 554.4C40.825 554.306 28.1267 552.006 21.1873 555.971C15.6938 559.11 7.12575 564.677 7.12575 555.144C7.12575 549.051 7.12575 542.958 7.12575 536.864C7.12575 522.023 5.63689 507.681 5.63689 492.86C5.63689 489.248 5.27159 500.112 5.7196 503.696C6.48213 509.796 8.71852 517.203 10.7652 523.051C12.3056 527.452 11.316 548.098 17.5478 548.444C20.3026 548.597 23.0469 547.721 24.2477 550.843C25.4828 554.054 24.2108 560.097 23.586 555.723C22.9229 551.081 21.5384 546.78 20.8564 542.158C20.1616 537.449 22.0663 530.556 20.1947 526.111C17.0083 518.544 16.2862 491.18 20.5255 483.761C21.4132 482.208 33.8787 482.181 35.0833 483.265C41.1823 488.754 24.3543 493.356 21.27 493.356C17.1071 493.356 27.7404 495.424 28.797 495.672C35.0761 497.15 39.8897 496.116 44.6783 492.198C47.0307 490.274 58.8314 491.4 62.1311 491.95C65.1732 492.457 67.907 499.607 69.3273 502.289C71.3502 506.111 78.4586 504.819 80.0802 511.305C81.9418 518.752 83.0579 524.303 83.0579 532.15C83.0579 541.575 77.7507 540.229 73.7939 546.955C73.1778 548.003 69.9614 551.134 68.831 551.339C66.8401 551.701 61.0451 549.32 64.6125 548.527C71.5176 546.993 80.0802 548.692 80.0802 539.511C80.0802 535.413 81.9027 526.893 77.9296 524.622C77.3014 524.263 74.1247 513.786 74.1247 513.042C74.1247 505.842 74.4053 501.496 79.1703 495.672C81.3943 492.954 74.5041 508.909 73.7939 512.381C72.3348 519.514 72.6359 526.629 72.6359 533.887C72.6359 536.624 73.612 551.492 74.1247 550.595C78.8227 542.373 86.0357 536.894 86.0357 526.111C86.0357 522.141 86.0357 518.171 86.0357 514.2C86.0357 509.796 88.448 507.557 88.9307 503.696C89.4403 499.618 88.6758 498.689 91.6603 496.003C95.0524 492.95 90.0684 509.771 89.3442 511.554C86.7812 517.863 77.6394 537.199 85.2912 543.151C90.2398 547 100.991 548.002 99.1046 539.511C97.1465 530.7 93.48 522.793 93.48 513.539C93.48 498.446 105.975 495.52 118.791 494.845C121.271 494.715 123.059 494.895 125.242 493.439C127.746 491.77 119.402 494.893 116.475 495.59C110.614 496.985 99.872 497.41 99.4354 505.267C99.1058 511.201 97.6727 522.939 101.751 527.6C105.191 531.531 108.294 534.308 111.677 537.691C113.666 539.68 122.476 548.473 116.475 540.835C111.115 534.013 112.835 525.126 112.835 516.847C112.835 509.858 106.15 491.867 118.046 491.867C126.769 491.867 118.787 497.56 114.324 497.823C110.365 498.056 108.63 505.427 107.624 508.245C104.345 517.427 107.231 498.149 108.7 495.507C110.854 491.629 122.1 491.867 126.235 491.867C136.326 491.867 146.417 491.867 156.509 491.867C164.554 491.867 169.412 490.116 169.412 499.312C169.412 510.01 169.412 520.707 169.412 531.405C169.412 536.387 166.73 545.137 161.968 548.113C153.66 553.306 159.456 545.88 164.118 542.489C170.423 537.904 172.851 529.362 177.684 523.961C181.038 520.211 184.301 510.419 184.301 505.433C184.301 501.189 186.536 486.687 177.518 492.198C174.571 493.999 176.856 513.493 176.856 517.261C176.856 522.81 174.705 538.568 177.684 533.887C181.336 528.147 180.684 520.467 182.812 514.2C184.47 509.317 188.395 506.674 190.587 502.289C194.574 494.315 202.074 494.845 209.612 494.845C213.557 494.845 217.706 492.896 220.695 490.379C222.714 488.679 227.332 490.049 228.636 488.559C233.051 483.513 213.691 487.953 208.95 492.695C203.577 498.067 200.593 501.584 198.859 508.907C197.102 516.323 192.535 528.755 186.534 533.556C183.876 535.682 184.124 540.446 182.812 543.316C181.756 545.626 178.475 547.597 178.345 549.933C178.197 552.596 179.597 553.75 182.316 552.663C189.338 549.854 194.829 547.021 197.701 539.842C200.12 533.794 199.189 526.577 199.189 520.156C199.189 515.598 199.395 502.018 207.792 502.951C208.849 503.069 208.123 520.981 208.123 523.051C208.123 532.454 205.798 544.465 211.928 550.595C215.154 553.821 223.517 551.214 219.372 548.775C211.204 543.971 201.537 545.467 192.407 545.467C186.233 545.467 167.953 548.444 174.127 548.444C183.97 548.444 193.813 548.444 203.656 548.444C205.489 548.444 218.154 547.211 218.545 547.7C222.782 552.997 228.136 551.422 233.433 551.422C238.382 551.422 272.977 547.886 267.346 539.842C261.7 531.776 264.7 513.438 264.7 503.778C264.7 496.723 264.844 497.759 270.655 495.176C275.356 493.087 279.691 491.867 284.882 491.867C288.94 491.867 297.669 493.494 300.763 490.709C303.812 487.965 307.738 485.912 311.599 485.912C318.726 485.912 301.951 495.821 298.943 497.492C295.754 499.264 297.455 509.967 297.455 513.539C297.455 519.734 295.966 525.738 295.966 532.067C295.966 535.977 299.296 542.099 302.583 543.978C307.355 546.705 306.109 551.401 313.088 549.85C315.128 549.397 324.535 544.878 324.254 542.489C323.538 536.402 311.038 542.96 309.448 534.217C308.409 528.502 310.524 522.68 308.208 517.178C305.75 511.341 310.98 480.185 298.943 491.867C287.686 502.794 287.033 513.476 287.033 529.089C287.033 537.608 285.207 539.517 279.588 545.467C277.482 547.696 278.099 548.235 278.099 544.722C278.099 539.098 278.099 533.473 278.099 527.848C278.099 523.889 278.893 518.989 277.769 515.193C276.826 512.012 273.768 510.076 273.633 506.425C273.523 503.466 275.122 487.896 275.122 497.244C275.122 504.495 275.122 511.747 275.122 518.998C275.122 523.075 272.886 535.651 275.452 539.18C277.444 541.919 276.184 544.29 274.294 547.038C270.828 552.08 269.825 547.77 275.122 548.527C278.134 548.957 279.428 550.421 280.746 552.911C282.067 555.407 286.009 554.4 288.521 554.4C295.707 554.4 301.499 551.422 308.704 551.422C315.672 551.422 321.185 554.4 327.894 554.4C334.125 554.4 340.356 554.4 346.587 554.4C357.152 554.4 368.212 557.378 379.177 557.378C384.148 557.378 389.345 554.657 394.231 554.4C404.315 553.869 413.282 556.282 423.181 554.483C432.463 552.795 435.271 551.578 444.522 554.069C447.552 554.885 445.522 551.422 441.875 551.422C436.125 551.422 433.665 552.827 428.558 555.062C422.213 557.837 407.811 556.228 402.006 552.911C397.666 550.431 392.814 552.544 388.358 550.595C385.015 549.132 383.039 548.444 379.342 548.444C369.564 548.444 371.898 544.731 371.898 535.624C371.898 526.42 364.856 532.12 361.145 536.203C357.671 540.024 340.843 539.511 346.008 539.511C362.189 539.511 361.476 522.867 361.476 510.478C361.476 504.215 359.987 498.274 359.987 491.867C359.987 486.193 358.902 488.261 360.814 488.807C363.949 489.703 366.822 493.938 370.492 495.59C376.726 498.395 394.471 495.689 388.772 507.087C385.612 513.407 378.587 522.119 377.853 529.089C377.503 532.413 378.307 534.978 376.695 538.022C372.032 546.831 371.898 548.444 361.559 548.444C355.242 548.444 349.224 547.286 343.609 546.955C340.579 546.777 342.704 543.119 344.437 542.489C346.109 541.881 353.139 539.629 353.949 538.684C357.352 534.713 363.026 531.068 365.942 526.608C369.746 520.79 366.442 509.744 373.221 506.839C377.245 505.114 389.011 495.204 384.14 502.289C381.24 506.507 368.687 488.89 371.071 488.89C380.357 488.89 391.596 491.451 400.848 488.807C410.28 486.112 398.057 488.271 396.051 493.687C393.483 500.62 392.742 509.843 392.742 517.178C392.742 522.922 390.386 534.338 395.72 536.864C398.828 538.336 407.355 548.559 404.405 543.151C402.552 539.754 396.975 537.284 394.231 534.217C391.128 530.749 392.742 523.384 392.742 518.998C392.742 516.406 392.742 513.814 392.742 511.223C392.742 507.701 395.72 507.416 395.72 504.44C395.72 496.824 403.145 493.356 409.864 493.356C415.834 493.356 418.511 487.401 424.835 487.401C435.019 487.401 452.622 480.451 456.432 494.845C457.577 499.168 462.137 530.384 457.59 533.225C454.811 534.962 448.689 544.845 453.868 537.94C458.385 531.918 465.697 519.972 465.697 512.712C465.697 509.94 467.524 508.382 467.103 505.433C466.715 502.721 462.719 504.274 462.719 500.801C462.719 497.141 466.979 497.823 469.419 497.823C476.745 497.823 470.706 509.35 470.246 513.952C469.652 519.889 470.163 526.094 470.163 532.067C470.163 538.907 472.064 546.558 473.224 534.962C473.796 529.234 474.482 523.783 474.63 518.005C474.798 511.431 474.367 501.424 476.449 495.176C477.008 493.501 480.604 490.123 482.074 492.695C484.787 497.443 483.563 504.549 483.563 509.817C483.563 516.269 481.593 526.028 483.894 532.067C485.914 537.37 485.052 534.199 485.052 529.916C485.052 520.791 485.182 513.749 488.857 505.35C489.623 503.597 494.525 499.704 496.301 498.815C497.134 498.399 496.963 505.888 496.963 506.839C496.963 513.263 496.963 519.687 496.963 526.111C496.963 529.207 495.139 540.749 497.624 542.406C499.873 543.905 492.22 542.489 489.518 542.489C484.797 542.489 487.863 540.676 490.676 539.842C499.898 537.11 513.17 542.449 524.589 545.136C530.46 546.517 537.619 545.467 543.614 545.467C548.124 545.467 562.712 548.058 566.609 545.136C569.671 542.839 562.912 542.353 562.473 542.158C557.781 540.073 552.572 532.133 552.051 541C551.946 542.785 528.861 545.467 526.161 545.467C517.38 545.467 493.985 543.275 493.985 531.24C493.985 520.054 489.44 509.172 496.136 498.65C498.679 494.653 501.098 496.951 504.076 494.514C505.427 493.409 504.387 489.387 506.227 487.732C508.446 485.735 519.475 487.401 522.273 487.401C531.788 487.401 552.17 485.837 557.675 494.845C560.014 498.672 564.205 527.155 562.473 526.442C561.094 525.874 558.006 528.182 558.006 526.69C558.006 522.771 560.322 519.206 559.412 515.11C558.924 512.913 552.741 498.442 558.006 497.823C561.991 497.354 568.428 489.823 568.428 499.477C568.428 508.039 569.457 516.344 569.917 524.622C570.098 527.873 573.971 541.9 574.301 539.263C574.914 534.357 574.207 529.231 574.384 524.292C574.485 521.446 577.221 517.257 577.361 522.472C577.522 528.398 578.98 534.178 580.256 539.925C580.831 542.509 580.339 534.631 580.339 531.984C580.339 524.841 580.372 539.215 580.339 541C580.283 544.072 580.582 555.258 577.361 557.047C563.99 564.475 554.832 557.378 541.629 557.378C536.299 557.378 530.919 555.889 525.996 555.889C518.023 555.889 512.249 551.422 504.407 551.422" stroke="white" stroke-width="15" stroke-linecap="round"/>
<path d="M0.829163 0.329163C5.24679 6.16043 8.88027 6.39438 15.9922 6.39438C18.4472 6.39438 20.9021 6.39438 23.3571 6.39438C25.7381 6.39438 26.8753 4.66146 28.9891 4.66146C37.9229 4.66146 46.4189 3.328 55.4161 4.61332C60.6961 5.3676 66.5473 4.66146 71.8789 4.66146C76.761 4.66146 80.9904 7.02325 85.7422 7.26084C91.7282 7.56014 97.9199 7.38987 103.842 6.58693C110.941 5.62433 118.254 7.26084 125.407 7.26084C130.365 7.26084 135.323 7.26084 140.281 7.26084C144.786 7.26084 149.424 8.1273 154.096 8.1273C161.979 8.1273 166.776 10.4839 174.073 12.8447C179.738 14.6774 184.062 13.9909 189.766 13.2779C191.259 13.0912 192.322 12.0612 193.761 11.7857C196.924 11.1799 200.374 11.6504 203.581 11.5931C207.63 11.5208 211.571 10.7267 215.663 10.7267C222.702 10.7267 229.502 8.53932 236.506 8.1273C239.116 7.97381 241.318 6.39438 244.256 6.39438C248.797 6.39438 253.338 6.39438 257.879 6.39438C265.484 6.39438 273.09 6.39438 280.696 6.39438C287.685 6.39438 297.605 4.58091 304.475 6.77947C318.318 11.2092 330.703 11.5931 344.862 11.5931C355.083 11.5931 365.304 11.5931 375.525 11.5931C381.519 11.5931 386.33 10.088 392.084 9.0419C401.538 7.323 412.507 8.99376 422.121 8.99376C431.108 8.99376 440.817 8.01454 449.752 9.18631C460.344 10.5755 470.965 8.97049 481.425 11.1599C488.049 12.5462 494.554 12.4596 501.258 12.4596C508.94 12.4596 516.559 11.5931 524.219 11.5931C530.585 11.5931 540.147 13.1844 545.832 10.3416C548.93 8.79267 554.537 9.86022 557.963 9.86022C561.717 9.86022 565.472 9.86022 569.227 9.86022C576.577 9.86022 582.705 8.1273 590.022 8.1273" stroke="#2F2E2E" stroke-width="2" stroke-linecap="round"/>
<path d="M591.533 7.14129C607.932 7.14129 624.332 7.14129 640.732 7.14129C657.932 7.14129 673.158 11.3284 689.93 11.3284C718.93 11.3284 747.93 11.3284 776.93 11.3284C805.542 11.3284 834.154 11.3284 862.766 11.3284C878.515 11.3284 892.965 7.14129 908.708 7.14129C919.873 7.14129 931.039 7.14129 942.205 7.14129C945.534 7.14129 953.399 10.1132 955.813 12.2589C961.181 17.0303 967.489 15.5155 974.655 15.5155C987.216 15.5155 999.778 15.5155 1012.34 15.5155C1038.47 15.5155 1064.6 15.5155 1090.73 15.5155C1102.76 15.5155 1110.26 6.77901 1123.3 7.14129C1144.86 7.74016 1165.71 15.5155 1187.73 15.5155C1193.44 15.5155 1199.25 15.832 1204.95 15.5155C1206.83 15.4108 1208.5 13.19 1210.3 12.3752C1213.99 10.6981 1218.11 12.3729 1221.7 10.8632C1226.52 8.83128 1231.09 9.23485 1236.35 9.23485C1249.07 9.23485 1261.78 9.23485 1274.5 9.23485C1289.73 9.23485 1303.86 11.3284 1319.16 11.3284C1329.35 11.3284 1339.83 10.5397 1349.87 12.4915C1361.76 14.8048 1373.94 19.7027 1386.04 19.7027C1413.14 19.7027 1439.46 20.4044 1465.71 15.6319C1478.84 13.2452 1494.15 15.5155 1507.47 15.5155C1513.4 15.5155 1519.33 15.5155 1525.26 15.5155C1531.5 15.5155 1537.12 11.3284 1543.06 11.3284C1548.84 11.3284 1552.24 7.14129 1557.71 7.14129C1563.12 7.14129 1569.25 6.28853 1574.58 7.2576C1590.98 10.2402 1605.85 11.3284 1622.61 11.3284C1675.18 11.3284 1726.27 11.3284 1778.58 11.3284C1796.3 11.3284 1813.45 15.5155 1830.92 15.5155C1835.78 15.5155 1840.73 15.8006 1845.58 15.5155C1849.33 15.2946 1851.81 11.3284 1856.05 11.3284C1870 11.3284 1883.96 11.3284 1897.92 11.3284C1908.02 11.3284 1911.49 2.95416 1923.04 2.95416" stroke="#2F2E2E" stroke-width="2" stroke-linecap="round"/>
<path d="M3.24152 561.936C15.1648 564.262 26.7602 564.029 38.8321 564.029C46.5652 564.029 52.0487 559.842 59.7677 559.842C80.3932 559.842 101.019 559.842 121.644 559.842C164.526 559.842 207.684 561.936 250.282 561.936C294.247 561.936 338.212 561.936 382.177 561.936C406.996 561.936 432.39 564.53 455.335 554.492C464.293 550.573 468.513 548.584 478.015 551.584C505.65 560.311 531.247 564.349 560.246 566.006C564.135 566.229 571.039 567.234 574.784 565.657C596.175 556.651 622.511 559.842 645.5 559.842C656.666 559.842 667.832 559.842 678.997 559.842C690.396 559.842 701.794 559.842 713.192 559.842C719.666 559.842 731.041 562.126 737.036 558.795C746.438 553.571 758.512 555.655 769.486 555.655C783.443 555.655 797.4 555.655 811.357 555.655C827.245 555.655 841.736 557.951 858.113 557.748C867.588 557.632 873.552 551.468 882.538 551.468C892.253 551.468 900.11 559.842 911.848 559.842C932.785 559.842 954.757 561.936 976.167 561.936C1004.4 561.936 1027.61 557.748 1055.84 557.748C1087.32 557.748 1118.57 559.842 1150.51 559.842" stroke="#2F2E2E" stroke-width="2" stroke-linecap="round"/>
<path d="M1152.61 557.749C1178.6 557.749 1202.82 559.842 1228.91 559.842C1243.48 559.842 1258.06 559.842 1272.64 559.842C1300.83 559.842 1332.08 563.924 1359.87 557.749C1397.1 549.474 1437.29 554.056 1475.02 555.771C1513.52 557.522 1551.71 561.936 1590.16 561.936C1626.99 561.936 1663.82 561.936 1700.66 561.936C1716.86 561.936 1732.9 564.029 1749.27 564.029C1757.11 564.029 1763.01 560.634 1770.44 559.958C1780.68 559.027 1791.32 559.842 1801.61 559.842C1813.92 559.842 1826.24 557.749 1838.83 557.749C1845.59 557.749 1851.5 559.842 1858.02 559.842C1865.06 559.842 1869.75 564.029 1876.52 564.029C1892.72 564.029 1908.93 564.029 1925.13 564.029" stroke="#2F2E2E" stroke-width="2" stroke-linecap="round"/>
<path d="M30.2719 58.8434C26.8856 50.6764 26.9755 44.9032 28.181 36.4648C29.3038 28.6053 33.0942 26.2927 41.2352 26.2927C46.9051 26.2927 52.5751 26.2927 58.2451 26.2927C61.1124 26.2927 64.0306 26.1338 66.8914 26.2927C68.8932 26.404 67.9086 33.683 67.9086 35.5041C67.9086 39.0455 67.9086 42.5869 67.9086 46.1283C67.9086 48.7199 66.1315 50.5532 65.8742 52.7402C65.6426 54.709 62.9898 66.4247 61.2402 66.9246C58.7373 67.6397 58.3157 69.0155 55.25 69.0155C52.3491 69.0155 49.4482 69.0155 46.5472 69.0155C40.1 69.0155 37.2668 66.1422 31.2891 64.9466" stroke="#2F2E2E" stroke-width="2" stroke-linecap="round"/>
<path d="M120.803 61.895C117.91 46.7034 118.626 28.7281 134.027 21.4328C142.746 17.3025 163.526 19.6385 163.526 31.8874C163.526 38.9137 163.526 45.9399 163.526 52.9662C163.526 55.8026 163.838 58.099 162.509 60.4257C161.663 61.9061 160.469 66.4739 158.892 66.9246C156.891 67.4963 154.269 68.7836 152.337 69.8067C148.464 71.8571 143.759 71.0499 139.339 71.0499C135.832 71.0499 132.174 71.5542 128.941 70.0327C126.886 69.0658 125.467 69.0453 123.855 67.4332C122.876 66.4545 122.956 65.5141 121.821 64.9467" stroke="#2F2E2E" stroke-width="2" stroke-linecap="round"/>
<path d="M221.507 60.8778C221.507 51.9513 222.524 43.7377 222.524 34.939C222.524 31.2255 222.682 30.1162 224.333 27.3099C226.516 23.5974 230.591 25.3637 232.696 22.7325C233.136 22.183 240.049 20.5334 241.343 20.246C245.422 19.3394 249.244 22.063 253.267 22.2239C261.99 22.5728 264.23 30.5633 264.23 38.2732C264.23 44.6213 264.23 50.9694 264.23 57.3176C264.23 60.1472 264.433 66.7562 260.161 66.981C256.275 67.1855 253.185 69.0155 249.48 69.0155C242.624 69.0155 237.241 71.1483 230.662 68.2243C228.371 67.206 226.647 65.6159 224.107 64.8901C221.234 64.0695 221.239 59.7265 219.473 58.8434" stroke="#2F2E2E" stroke-width="2" stroke-linecap="round"/>
<path d="M322.211 58.8434C320.64 48.8307 320.437 37.8661 324.019 28.5532C326.488 22.1344 334.956 24.2584 340.52 24.2584C344.916 24.2584 352.033 22.8056 355.326 26.2928C356.858 27.9147 356.758 33.2728 357.587 35.4476C358.906 38.9109 357.813 44.7554 357.813 48.4453C357.813 54.7071 357.128 61.0008 356.796 66.9811C356.442 73.3456 344.376 73.0843 339.729 73.0843C328.195 73.0843 318.142 71.9723 318.142 58.8434" stroke="#2F2E2E" stroke-width="2" stroke-linecap="round"/>
<path d="M415.794 59.8606C415.794 48.7733 411.636 38.1515 415.568 27.536C416.889 23.9671 429.857 23.2411 433.595 23.2411C436.954 23.2411 440.432 22.9562 443.71 23.8062C448.085 24.9404 451.252 30.395 454.448 33.4132C458.072 36.8359 456.482 44.6535 456.482 49.7451C456.482 56.6301 457.709 64.5418 454.956 70.5978C451.526 78.1445 444.594 77.1532 437.155 77.1532C430.832 77.1532 423.87 78.1354 418.393 75.0057C414.367 72.7048 414.777 62.7573 414.777 58.8434" stroke="#2F2E2E" stroke-width="2" stroke-linecap="round"/>
<path d="M315.852 526.289C312.466 518.122 312.556 512.349 313.762 503.911C314.884 496.051 318.675 493.739 326.816 493.739C332.486 493.739 338.156 493.739 343.826 493.739C346.693 493.739 349.611 493.58 352.472 493.739C354.474 493.85 353.489 501.129 353.489 502.95C353.489 506.491 353.489 510.033 353.489 513.574C353.489 516.166 351.712 517.999 351.455 520.186C351.223 522.155 348.57 533.871 346.821 534.37C344.318 535.086 343.896 536.461 340.831 536.461C337.93 536.461 335.029 536.461 332.128 536.461C325.681 536.461 322.847 533.588 316.87 532.393" stroke="#2F2E2E" stroke-width="2" stroke-linecap="round"/>
<path d="M406.384 529.341C403.49 514.149 404.206 496.174 419.608 488.879C428.327 484.748 449.107 487.084 449.107 499.333C449.107 506.36 449.107 513.386 449.107 520.412C449.107 523.248 449.419 525.545 448.09 527.872C447.244 529.352 446.05 533.92 444.473 534.37C442.472 534.942 439.85 536.229 437.917 537.253C434.044 539.303 429.339 538.496 424.92 538.496C421.413 538.496 417.755 539 414.522 537.479C412.467 536.512 411.048 536.491 409.436 534.879C408.457 533.9 408.536 532.96 407.401 532.393" stroke="#2F2E2E" stroke-width="2" stroke-linecap="round"/>
<path d="M507.088 528.324C507.088 519.397 508.105 511.184 508.105 502.385C508.105 498.671 508.262 497.562 509.913 494.756C512.097 491.043 516.172 492.81 518.277 490.178C518.717 489.629 525.63 487.979 526.923 487.692C531.003 486.785 534.825 489.509 538.847 489.67C547.57 490.019 549.81 498.009 549.81 505.719C549.81 512.067 549.81 518.415 549.81 524.763C549.81 527.593 550.014 534.202 545.741 534.427C541.856 534.631 538.766 536.461 535.061 536.461C528.205 536.461 522.821 538.594 516.242 535.67C513.951 534.652 512.227 533.062 509.687 532.336C506.815 531.515 506.819 527.172 505.053 526.289" stroke="#2F2E2E" stroke-width="2" stroke-linecap="round"/>
<path d="M607.791 526.289C606.22 516.277 606.018 505.312 609.599 495.999C612.068 489.58 620.536 491.704 626.101 491.704C630.497 491.704 637.613 490.251 640.907 493.739C642.439 495.361 642.339 500.719 643.167 502.894C644.487 506.357 643.393 512.201 643.393 515.891C643.393 522.153 642.708 528.447 642.376 534.427C642.023 540.791 629.956 540.53 625.31 540.53C613.775 540.53 603.722 539.418 603.722 526.289" stroke="#2F2E2E" stroke-width="2" stroke-linecap="round"/>
<path d="M701.374 527.306C701.374 516.219 697.217 505.597 701.148 494.982C702.47 491.413 715.438 490.687 719.175 490.687C722.534 490.687 726.012 490.402 729.291 491.252C733.665 492.386 736.832 497.841 740.028 500.859C743.652 504.282 742.063 512.099 742.063 517.191C742.063 524.076 743.29 531.988 740.537 538.044C737.107 545.59 730.175 544.599 722.736 544.599C716.412 544.599 709.451 545.581 703.974 542.452C699.947 540.151 700.357 530.203 700.357 526.289" stroke="#2F2E2E" stroke-width="2" stroke-linecap="round"/>
<path d="M1089.85 66.2893C1086.47 58.1223 1086.56 52.3491 1087.76 43.9107C1088.88 36.0512 1092.67 33.7386 1100.82 33.7386C1106.49 33.7386 1112.16 33.7386 1117.83 33.7386C1120.69 33.7386 1123.61 33.5797 1126.47 33.7386C1128.47 33.8498 1127.49 41.1288 1127.49 42.95C1127.49 46.4914 1127.49 50.0328 1127.49 53.5742C1127.49 56.1657 1125.71 57.999 1125.45 60.186C1125.22 62.1549 1122.57 73.8705 1120.82 74.3704C1118.32 75.0856 1117.9 76.4613 1114.83 76.4613C1111.93 76.4613 1109.03 76.4613 1106.13 76.4613C1099.68 76.4613 1096.85 73.5881 1090.87 72.3925" stroke="#2F2E2E" stroke-width="2" stroke-linecap="round"/>
<path d="M1180.38 69.3409C1177.49 54.1492 1178.21 36.1739 1193.61 28.8786C1202.33 24.7484 1223.11 27.0844 1223.11 39.3333C1223.11 46.3595 1223.11 53.3858 1223.11 60.4121C1223.11 63.2485 1223.42 65.5449 1222.09 67.8716C1221.24 69.352 1220.05 73.9198 1218.47 74.3704C1216.47 74.9422 1213.85 76.2294 1211.92 77.2525C1208.04 79.303 1203.34 78.4958 1198.92 78.4958C1195.41 78.4958 1191.75 79 1188.52 77.4786C1186.47 76.5117 1185.05 76.4912 1183.44 74.879C1182.46 73.9003 1182.54 72.96 1181.4 72.3925" stroke="#2F2E2E" stroke-width="2" stroke-linecap="round"/>
<path d="M1281.09 68.3237C1281.09 59.3972 1282.1 51.1836 1282.1 42.3849C1282.1 38.6714 1282.26 37.5621 1283.91 34.7558C1286.1 31.0433 1290.17 32.8096 1292.28 30.1784C1292.72 29.6288 1299.63 27.9793 1300.92 27.6919C1305 26.7852 1308.82 29.5089 1312.85 29.6698C1321.57 30.0187 1323.81 38.0091 1323.81 45.719C1323.81 52.0672 1323.81 58.4153 1323.81 64.7634C1323.81 67.5931 1324.01 74.2021 1319.74 74.4269C1315.86 74.6314 1312.77 76.4613 1309.06 76.4613C1302.2 76.4613 1296.82 78.5942 1290.24 75.6702C1287.95 74.6518 1286.23 73.0617 1283.69 72.336C1280.82 71.5154 1280.82 67.1724 1279.05 66.2892" stroke="#2F2E2E" stroke-width="2" stroke-linecap="round"/>
<path d="M1381.79 66.2893C1380.22 56.2766 1380.02 45.312 1383.6 35.9991C1386.07 29.5803 1394.54 31.7042 1400.1 31.7042C1404.5 31.7042 1411.61 30.2515 1414.91 33.7386C1416.44 35.3606 1416.34 40.7187 1417.17 42.8935C1418.49 46.3568 1417.39 52.2012 1417.39 55.8912C1417.39 62.153 1416.71 68.4467 1416.38 74.4269C1416.02 80.7914 1403.96 80.5302 1399.31 80.5302C1387.78 80.5302 1377.72 79.4182 1377.72 66.2893" stroke="#2F2E2E" stroke-width="2" stroke-linecap="round"/>
<path d="M1475.37 67.3065C1475.37 56.2192 1471.22 45.5974 1475.15 34.9819C1476.47 31.413 1489.44 30.687 1493.18 30.687C1496.53 30.687 1500.01 30.4021 1503.29 31.2521C1507.67 32.3862 1510.83 37.8409 1514.03 40.8591C1517.65 44.2818 1516.06 52.0994 1516.06 57.1909C1516.06 64.076 1517.29 71.9877 1514.54 78.0437C1511.11 85.5903 1504.17 84.599 1496.74 84.599C1490.41 84.599 1483.45 85.5813 1477.97 82.4516C1473.95 80.1506 1474.36 70.2032 1474.36 66.2893" stroke="#2F2E2E" stroke-width="2" stroke-linecap="round"/>
<path d="M1468.85 517.289C1465.47 509.122 1465.56 503.349 1466.76 494.911C1467.88 487.051 1471.67 484.739 1479.82 484.739C1485.49 484.739 1491.16 484.739 1496.83 484.739C1499.69 484.739 1502.61 484.58 1505.47 484.739C1507.47 484.85 1506.49 492.129 1506.49 493.95C1506.49 497.491 1506.49 501.033 1506.49 504.574C1506.49 507.166 1504.71 508.999 1504.45 511.186C1504.22 513.155 1501.57 524.871 1499.82 525.37C1497.32 526.086 1496.9 527.461 1493.83 527.461C1490.93 527.461 1488.03 527.461 1485.13 527.461C1478.68 527.461 1475.85 524.588 1469.87 523.393" stroke="#2F2E2E" stroke-width="2" stroke-linecap="round"/>
<path d="M1559.38 520.341C1556.49 505.149 1557.21 487.174 1572.61 479.879C1581.33 475.748 1602.11 478.084 1602.11 490.333C1602.11 497.36 1602.11 504.386 1602.11 511.412C1602.11 514.248 1602.42 516.545 1601.09 518.872C1600.24 520.352 1599.05 524.92 1597.47 525.37C1595.47 525.942 1592.85 527.229 1590.92 528.253C1587.04 530.303 1582.34 529.496 1577.92 529.496C1574.41 529.496 1570.75 530 1567.52 528.479C1565.47 527.512 1564.05 527.491 1562.44 525.879C1561.46 524.9 1561.54 523.96 1560.4 523.393" stroke="#2F2E2E" stroke-width="2" stroke-linecap="round"/>
<path d="M1660.09 519.324C1660.09 510.397 1661.1 502.184 1661.1 493.385C1661.1 489.671 1661.26 488.562 1662.91 485.756C1665.1 482.043 1669.17 483.81 1671.28 481.178C1671.72 480.629 1678.63 478.979 1679.92 478.692C1684 477.785 1687.82 480.509 1691.85 480.67C1700.57 481.019 1702.81 489.009 1702.81 496.719C1702.81 503.067 1702.81 509.415 1702.81 515.763C1702.81 518.593 1703.01 525.202 1698.74 525.427C1694.86 525.631 1691.77 527.461 1688.06 527.461C1681.2 527.461 1675.82 529.594 1669.24 526.67C1666.95 525.652 1665.23 524.062 1662.69 523.336C1659.82 522.515 1659.82 518.172 1658.05 517.289" stroke="#2F2E2E" stroke-width="2" stroke-linecap="round"/>
<path d="M1760.79 517.289C1759.22 507.277 1759.02 496.312 1762.6 486.999C1765.07 480.58 1773.54 482.704 1779.1 482.704C1783.5 482.704 1790.61 481.251 1793.91 484.739C1795.44 486.361 1795.34 491.719 1796.17 493.894C1797.49 497.357 1796.39 503.201 1796.39 506.891C1796.39 513.153 1795.71 519.447 1795.38 525.427C1795.02 531.791 1782.96 531.53 1778.31 531.53C1766.78 531.53 1756.72 530.418 1756.72 517.289" stroke="#2F2E2E" stroke-width="2" stroke-linecap="round"/>
<path d="M1854.37 518.306C1854.37 507.219 1850.22 496.597 1854.15 485.982C1855.47 482.413 1868.44 481.687 1872.18 481.687C1875.53 481.687 1879.01 481.402 1882.29 482.252C1886.67 483.386 1889.83 488.841 1893.03 491.859C1896.65 495.282 1895.06 503.099 1895.06 508.191C1895.06 515.076 1896.29 522.988 1893.54 529.044C1890.11 536.59 1883.17 535.599 1875.74 535.599C1869.41 535.599 1862.45 536.581 1856.97 533.452C1852.95 531.151 1853.36 521.203 1853.36 517.289" stroke="#2F2E2E" stroke-width="2" stroke-linecap="round"/>
<path d="M1568.29 43.5853C1568.17 38.7446 1566.36 33.6394 1567.5 28.7793C1568.25 25.5707 1571.62 26.5886 1573.88 24.8235C1575.83 23.3072 1578.86 24.9442 1581.01 23.7498C1583.33 22.4595 1585 22.2239 1587.62 22.2239C1591.3 22.2239 1602.88 21.3797 1602.88 26.8014C1602.88 32.2453 1602.88 37.6893 1602.88 43.1332C1602.88 46.1968 1604.91 47.9268 1604.91 51.1579C1604.91 53.7691 1604.59 54.8254 1603.67 57.0351C1601.28 62.7578 1593.25 60.8778 1588.24 60.8778C1585.36 60.8778 1571.39 64.101 1570.55 61.669C1568.87 56.8068 1570.32 48.7265 1570.32 43.5853" stroke="#2F2E2E" stroke-width="2" stroke-linecap="round"/>
<path d="M1661.87 54.7746C1661.87 48.4833 1660.11 30.7716 1666.45 25.8407C1669.04 23.8269 1677.35 26.2928 1680.69 26.2928C1684.42 26.2928 1688.15 26.2928 1691.88 26.2928C1694.3 26.2928 1694.49 27.5691 1696.46 28.5532C1702.49 31.567 1700.85 42.9219 1700.53 48.6713C1700.33 52.1739 1698.49 54.7385 1698.49 58.6174C1698.49 61.4776 1696.46 63.1531 1696.46 66.4725C1696.46 74.6608 1686.11 70.8794 1681.77 70.0892C1676.15 69.0674 1668.49 70.1231 1663.68 66.1899C1658.9 62.2775 1659.84 57.5334 1659.84 51.723" stroke="#2F2E2E" stroke-width="2" stroke-linecap="round"/>
<path d="M1759.53 62.9122C1759.53 52.9555 1757.66 43.6546 1766.42 36.9169C1768.56 35.2707 1769.75 32.3937 1771.96 30.5876C1773.14 29.623 1777.34 30.3616 1778.85 30.3616C1783.85 30.3616 1793.08 28.5207 1797.73 30.5876C1800.73 31.9215 1802.25 32.5514 1802.25 35.8997C1802.25 40.7597 1802.25 45.6197 1802.25 50.4797C1802.25 64.3012 1804.36 87.5798 1783.15 80.9959C1779.83 79.9674 1777.23 79.1661 1773.77 78.3964C1769.78 77.5112 1767.28 79.3097 1764.61 76.1359C1762.55 73.692 1764.35 69.7022 1762.35 67.2071C1760.45 64.8252 1759.53 64.1745 1759.53 60.8778" stroke="#2F2E2E" stroke-width="2" stroke-linecap="round"/>
<path d="M1081.17 512.409C1081.05 507.568 1079.23 502.463 1080.38 497.603C1081.13 494.394 1084.49 495.412 1086.76 493.647C1088.71 492.131 1091.73 493.768 1093.88 492.573C1096.21 491.283 1097.88 491.048 1100.49 491.048C1104.17 491.048 1115.75 490.203 1115.75 495.625C1115.75 501.069 1115.75 506.513 1115.75 511.957C1115.75 515.02 1117.79 516.75 1117.79 519.982C1117.79 522.593 1117.46 523.649 1116.54 525.859C1114.16 531.581 1106.13 529.702 1101.12 529.702C1098.23 529.702 1084.27 532.925 1083.43 530.493C1081.74 525.63 1083.2 517.55 1083.2 512.409" stroke="#2F2E2E" stroke-width="2" stroke-linecap="round"/>
<path d="M1174.75 523.598C1174.75 517.307 1172.99 499.595 1179.33 494.664C1181.92 492.651 1190.23 495.116 1193.57 495.116C1197.3 495.116 1201.03 495.116 1204.76 495.116C1207.18 495.116 1207.37 496.393 1209.34 497.377C1215.36 500.391 1213.72 511.746 1213.4 517.495C1213.21 520.998 1211.37 523.562 1211.37 527.441C1211.37 530.301 1209.34 531.977 1209.34 535.296C1209.34 543.484 1198.99 539.703 1194.64 538.913C1189.02 537.891 1181.37 538.947 1176.56 535.014C1171.78 531.101 1172.72 526.357 1172.72 520.547" stroke="#2F2E2E" stroke-width="2" stroke-linecap="round"/>
<path d="M1272.4 531.736C1272.4 521.779 1270.54 512.478 1279.3 505.741C1281.44 504.094 1282.63 501.217 1284.84 499.411C1286.01 498.447 1290.22 499.185 1291.73 499.185C1296.73 499.185 1305.95 497.344 1310.6 499.411C1313.61 500.745 1315.13 501.375 1315.13 504.723C1315.13 509.583 1315.13 514.443 1315.13 519.303C1315.13 533.125 1317.24 556.404 1296.02 549.82C1292.71 548.791 1290.11 547.99 1286.64 547.22C1282.66 546.335 1280.16 548.133 1277.49 544.96C1275.43 542.516 1277.22 538.526 1275.23 536.031C1273.32 533.649 1272.4 532.998 1272.4 529.701" stroke="#2F2E2E" stroke-width="2" stroke-linecap="round"/>
<path d="M697.167 49.409C697.049 44.5683 695.233 39.463 696.376 34.603C697.131 31.3943 700.493 32.4123 702.762 30.6471C704.712 29.1309 707.733 30.7678 709.883 29.5734C712.205 28.2831 713.878 28.0476 716.494 28.0476C720.173 28.0476 731.753 27.2034 731.753 32.625C731.753 38.069 731.753 43.5129 731.753 48.9569C731.753 52.0205 733.787 53.7504 733.787 56.9815C733.787 59.5927 733.464 60.649 732.544 62.8587C730.159 68.5814 722.13 66.7015 717.116 66.7015C714.233 66.7015 700.27 69.9247 699.428 67.4927C697.745 62.6304 699.202 54.5502 699.202 49.409" stroke="#2F2E2E" stroke-width="2" stroke-linecap="round"/>
<path d="M790.751 60.5982C790.751 54.3069 788.988 36.5953 795.328 31.6643C797.917 29.6506 806.225 32.1164 809.569 32.1164C813.299 32.1164 817.028 32.1164 820.758 32.1164C823.175 32.1164 823.367 33.3928 825.336 34.3769C831.363 37.3906 829.724 48.7456 829.404 54.495C829.21 57.9976 827.37 60.5622 827.37 64.441C827.37 67.3013 825.336 68.9768 825.336 72.2961C825.336 80.4845 814.989 76.7031 810.643 75.9129C805.023 74.8911 797.366 75.9467 792.559 72.0136C787.777 68.1011 788.716 63.3571 788.716 57.5466" stroke="#2F2E2E" stroke-width="2" stroke-linecap="round"/>
<path d="M888.403 68.7359C888.403 58.7792 886.538 49.4782 895.297 42.7406C897.437 41.0944 898.628 38.2173 900.835 36.4113C902.014 35.4467 906.22 36.1852 907.73 36.1852C912.73 36.1852 921.954 34.3443 926.604 36.4113C929.606 37.7451 931.125 38.3751 931.125 41.7234C931.125 46.5834 931.125 51.4434 931.125 56.3034C931.125 70.1249 933.239 93.4035 912.024 86.8196C908.71 85.7911 906.107 84.9898 902.643 84.2201C898.66 83.3349 896.161 85.1334 893.489 81.9596C891.431 79.5156 893.224 75.5258 891.228 73.0308C889.323 70.6489 888.403 69.9981 888.403 66.7015" stroke="#2F2E2E" stroke-width="2" stroke-linecap="round"/>
<path d="M509.998 54.9983C509.998 49.7042 509.998 44.41 509.998 39.1159C509.998 35.2393 513.39 32.8737 516.234 30.2335C519.857 26.8686 527.417 28.5276 532.234 28.5276C536.624 28.5276 543.881 26.5862 543.881 32.7629C543.881 37.6654 544.94 42.5346 544.94 47.5865C544.94 53.506 544.895 61.3324 543.822 67.2336C542.616 73.8684 533.023 70.0306 529.057 69.8219C525.344 69.6265 513.76 71.9314 512.116 68.2336C509.707 62.8131 509.998 57.9715 509.998 51.8218" stroke="#2F2E2E" stroke-width="2" stroke-linecap="round"/>
<path d="M606.352 56.0571C604.681 47.2875 600.54 24.2923 614.822 24.2923C622.221 24.2923 629.166 23.2335 636.411 23.2335C642.072 23.2335 642.086 23.4991 643.646 28.7629C644.705 32.3374 644.469 35.9311 644.469 39.6453C644.469 46.0963 644.469 52.5473 644.469 58.9983C644.469 66.3145 642.467 69.8219 635.175 69.8219C627.841 69.8219 621.023 68.763 613.763 68.763C605.597 68.763 605.293 65.2121 605.293 58.1748" stroke="#2F2E2E" stroke-width="2" stroke-linecap="round"/>
<path d="M895.011 525.765C895.011 520.471 895.011 515.177 895.011 509.882C895.011 506.006 898.403 503.64 901.246 501C904.87 497.635 912.43 499.294 917.246 499.294C921.637 499.294 928.894 497.353 928.894 503.529C928.894 508.432 929.952 513.301 929.952 518.353C929.952 524.273 929.908 532.099 928.835 538C927.628 544.635 918.036 540.797 914.07 540.588C910.357 540.393 898.772 542.698 897.129 539C894.72 533.58 895.011 528.738 895.011 522.588" stroke="#2F2E2E" stroke-width="2" stroke-linecap="round"/>
<path d="M991.364 526.824C989.694 518.054 985.553 495.059 999.835 495.059C1007.23 495.059 1014.18 494 1021.42 494C1027.09 494 1027.1 494.266 1028.66 499.529C1029.72 503.104 1029.48 506.698 1029.48 510.412C1029.48 516.863 1029.48 523.314 1029.48 529.765C1029.48 537.081 1027.48 540.588 1020.19 540.588C1012.85 540.588 1006.04 539.53 998.776 539.53C990.609 539.53 990.306 535.979 990.306 528.941" stroke="#2F2E2E" stroke-width="2" stroke-linecap="round"/>
<path d="M123.011 525.765C123.011 520.471 123.011 515.177 123.011 509.882C123.011 506.006 126.403 503.64 129.246 501C132.87 497.635 140.43 499.294 145.246 499.294C149.637 499.294 156.894 497.353 156.894 503.529C156.894 508.432 157.952 513.301 157.952 518.353C157.952 524.273 157.908 532.099 156.835 538C155.628 544.635 146.036 540.797 142.07 540.588C138.357 540.393 126.772 542.698 125.129 539C122.72 533.58 123.011 528.738 123.011 522.588" stroke="#2F2E2E" stroke-width="2" stroke-linecap="round"/>
<path d="M219.364 526.824C217.694 518.054 213.553 495.059 227.835 495.059C235.234 495.059 242.179 494 249.423 494C255.085 494 255.099 494.266 256.659 499.529C257.718 503.104 257.482 506.698 257.482 510.412C257.482 516.863 257.482 523.314 257.482 529.765C257.482 537.081 255.48 540.588 248.188 540.588C240.854 540.588 234.036 539.53 226.776 539.53C218.609 539.53 218.306 535.979 218.306 528.941" stroke="#2F2E2E" stroke-width="2" stroke-linecap="round"/>
<path d="M29.4588 496.334C38.3919 496.334 47.3251 496.334 56.2583 496.334C66.9269 496.334 68.1693 497.553 68.1693 508.245C68.1693 515.193 68.1693 522.141 68.1693 529.089C68.1693 532.563 68.1693 536.037 68.1693 539.511C68.1693 545.351 64.2583 543.147 60.1459 544.06C57.363 544.679 56.5281 546.955 52.5362 546.955C49.7345 546.955 46.3389 547.481 43.603 546.873C40.1892 546.114 29.4588 546.055 29.4588 541.662C29.4588 536.909 26.481 533.063 26.481 528.427C26.481 524.926 26.481 521.424 26.481 517.923C26.481 511.592 29.4588 505.788 29.4588 499.312" stroke="#2F2E2E" stroke-width="2" stroke-linecap="round"/>
<path d="M798.978 495C807.911 495 816.844 495 825.777 495C836.446 495 837.688 496.219 837.688 506.911C837.688 513.859 837.688 520.807 837.688 527.755C837.688 531.229 837.688 534.703 837.688 538.177C837.688 544.017 833.777 541.813 829.665 542.726C826.882 543.345 826.047 545.621 822.055 545.621C819.253 545.621 815.858 546.147 813.122 545.539C809.708 544.78 798.978 544.721 798.978 540.328C798.978 535.575 796 531.729 796 527.093C796 523.592 796 520.09 796 516.589C796 510.258 798.978 504.454 798.978 497.978" stroke="#2F2E2E" stroke-width="2" stroke-linecap="round"/>
<path d="M990.978 23C999.911 23 1008.84 23 1017.78 23C1028.45 23 1029.69 24.2187 1029.69 34.9109C1029.69 41.859 1029.69 48.807 1029.69 55.7551C1029.69 59.2291 1029.69 62.7031 1029.69 66.1771C1029.69 72.0168 1025.78 69.8126 1021.66 70.7264C1018.88 71.3448 1018.05 73.6214 1014.06 73.6214C1011.25 73.6214 1007.86 74.1467 1005.12 73.5387C1001.71 72.7801 990.978 72.7215 990.978 68.3277C990.978 63.5755 988 59.7293 988 55.0933C988 51.5917 988 48.0902 988 44.5886C988 38.2582 990.978 32.4544 990.978 25.9777" stroke="#2F2E2E" stroke-width="2" stroke-linecap="round"/>
<path d="M1851.98 38C1860.91 38 1869.84 38 1878.78 38C1889.45 38 1890.69 39.2187 1890.69 49.9109C1890.69 56.859 1890.69 63.807 1890.69 70.7551C1890.69 74.2291 1890.69 77.7031 1890.69 81.1771C1890.69 87.0168 1886.78 84.8126 1882.66 85.7264C1879.88 86.3448 1879.05 88.6214 1875.06 88.6214C1872.25 88.6214 1868.86 89.1467 1866.12 88.5387C1862.71 87.7801 1851.98 87.7215 1851.98 83.3277C1851.98 78.5755 1849 74.7293 1849 70.0933C1849 66.5917 1849 63.0902 1849 59.5886C1849 53.2582 1851.98 47.4544 1851.98 40.9777" stroke="#2F2E2E" stroke-width="2" stroke-linecap="round"/>
<path d="M1374.98 494C1383.91 494 1392.84 494 1401.78 494C1412.45 494 1413.69 495.219 1413.69 505.911C1413.69 512.859 1413.69 519.807 1413.69 526.755C1413.69 530.229 1413.69 533.703 1413.69 537.177C1413.69 543.017 1409.78 540.813 1405.66 541.726C1402.88 542.345 1402.05 544.621 1398.06 544.621C1395.25 544.621 1391.86 545.147 1389.12 544.539C1385.71 543.78 1374.98 543.721 1374.98 539.328C1374.98 534.575 1372 530.729 1372 526.093C1372 522.592 1372 519.09 1372 515.589C1372 509.258 1374.98 503.454 1374.98 496.978" stroke="#2F2E2E" stroke-width="2" stroke-linecap="round"/>
<path d="M0.907166 92.6988C74.0568 92.6988 149.651 82.9864 222.794 90.5856C282.977 96.8385 340.647 84.5479 400.303 84.5479C407.336 84.5479 431.421 83.3644 436.831 88.7743C444.579 96.5223 461.014 98.1328 472.454 98.1328C508.177 98.1328 543.9 98.1328 579.623 98.1328C620.177 98.1328 660.73 98.1328 701.283 98.1328C727.749 98.1328 754.214 98.1328 780.68 98.1328C798.256 98.1328 811.538 103.567 828.227 103.567C844.624 103.567 859.98 103.984 876.076 106.284C894.851 108.966 910.743 114.435 930.113 114.435C939.673 114.435 949.233 114.435 958.792 114.435C971.421 114.435 984.05 114.435 996.679 114.435C1008.38 114.435 1023.68 108.09 1034.87 104.774C1044 102.069 1054.96 103.567 1064.45 103.567C1112.35 103.567 1160.25 103.567 1208.15 103.567C1262.93 103.567 1317.2 109.001 1371.92 109.001C1389.94 109.001 1407.95 109.001 1425.96 109.001C1441.57 109.001 1461.12 112.317 1476.07 107.642C1499.84 100.216 1533.33 111.096 1552.9 93.3026C1564.92 82.3799 1606.56 89.9819 1622.34 89.9819C1641.56 89.9819 1660.78 89.9819 1680 89.9819C1692.79 89.9819 1703.64 98.1328 1716.68 98.1328C1785.4 98.1328 1853.61 100.85 1921.81 100.85" stroke="#2F2E2E" stroke-width="2" stroke-linecap="round"/>
<path d="M1 96.2606C74.1496 96.2606 149.744 86.5482 222.886 94.1474C283.07 100.4 340.74 88.1096 400.396 88.1096C407.429 88.1096 431.514 86.9261 436.924 92.336C444.672 100.084 461.106 101.695 472.546 101.695C508.27 101.695 543.993 101.695 579.716 101.695C620.269 101.695 660.823 101.695 701.376 101.695C727.842 101.695 754.307 101.695 780.772 101.695C798.349 101.695 811.631 107.128 828.319 107.128C844.717 107.128 860.073 107.546 876.168 109.845C894.944 112.528 910.836 117.996 930.206 117.996C939.766 117.996 949.326 117.996 958.885 117.996C971.514 117.996 984.143 117.996 996.772 117.996C1008.48 117.996 1023.77 111.652 1034.96 108.336C1044.09 105.631 1055.06 107.128 1064.55 107.128C1112.44 107.128 1160.34 107.128 1208.24 107.128C1263.02 107.128 1317.29 112.562 1372.02 112.562C1390.03 112.562 1408.04 112.562 1426.05 112.562C1441.66 112.562 1461.21 115.879 1476.17 111.204C1499.93 103.778 1533.43 114.657 1553 96.8643C1565.01 85.9416 1606.66 93.5436 1622.43 93.5436C1641.65 93.5436 1660.87 93.5436 1680.09 93.5436C1692.88 93.5436 1703.73 101.695 1716.77 101.695C1785.49 101.695 1853.71 104.411 1921.9 104.411" stroke="#2F2E2E" stroke-width="2" stroke-linecap="round"/>
<path d="M3.62415 478.51C48.956 478.51 94.346 473.076 139.473 473.076C178.416 473.076 217.36 473.076 256.303 473.076C330.891 473.076 405.459 475.793 479.699 475.793C508.928 475.793 538.71 477.64 567.397 473.227C586.134 470.344 600.706 462.208 620.378 462.208C637.895 462.208 666.815 456.052 682.868 462.811C694.557 467.733 721.828 458.054 731.17 465.528C742.781 474.817 764.326 473.076 779.17 473.076C797.848 473.076 813.431 478.51 832.302 478.51C863.163 478.51 892.305 483.943 923.17 483.943C941.786 483.943 960.402 483.943 979.019 483.943C999.075 483.943 1015.14 473.076 1036.08 473.076C1053.24 473.076 1074.84 474.82 1090.41 481.83C1104.96 488.377 1129.91 483.943 1145.96 483.943C1155.94 483.943 1165.31 478.51 1176 478.51C1186.03 478.51 1193.85 478.013 1203.17 475.943C1222.48 471.653 1247.03 475.793 1267.02 475.793C1291.67 475.793 1316.33 475.793 1340.98 475.793C1386.7 475.793 1431.92 478.51 1477.58 478.51C1496.2 478.51 1506.96 464.925 1525.13 464.925C1541.23 464.925 1557.33 464.925 1573.43 464.925C1613.24 464.925 1651.26 462.208 1690.87 462.208C1706.26 462.208 1721.66 462.208 1737.06 462.208C1774.68 462.208 1810.86 473.076 1848.45 473.076C1862.94 473.076 1877.43 473.076 1891.92 473.076C1897.67 473.076 1908.54 470.972 1913.66 473.679C1921.27 477.706 1922.35 483.943 1932.68 483.943" stroke="#2F2E2E" stroke-width="2" stroke-linecap="round"/>
<path d="M3.62415 483.867C48.956 483.867 94.346 478.433 139.473 478.433C178.416 478.433 217.36 478.433 256.303 478.433C330.891 478.433 405.459 481.15 479.699 481.15C508.928 481.15 538.71 482.998 567.397 478.584C586.134 475.702 600.706 467.565 620.378 467.565C637.895 467.565 666.815 461.41 682.868 468.169C694.557 473.09 721.828 463.412 731.17 470.886C742.781 480.175 764.326 478.433 779.17 478.433C797.848 478.433 813.431 483.867 832.302 483.867C863.163 483.867 892.305 489.301 923.17 489.301C941.786 489.301 960.402 489.301 979.019 489.301C999.075 489.301 1015.14 478.433 1036.08 478.433C1053.24 478.433 1074.84 480.178 1090.41 487.188C1104.96 493.735 1129.91 489.301 1145.96 489.301C1155.94 489.301 1165.31 483.867 1176 483.867C1186.03 483.867 1193.85 483.371 1203.17 481.301C1222.48 477.01 1247.03 481.15 1267.02 481.15C1291.67 481.15 1316.33 481.15 1340.98 481.15C1386.7 481.15 1431.92 483.867 1477.58 483.867C1496.2 483.867 1506.96 470.282 1525.13 470.282C1541.23 470.282 1557.33 470.282 1573.43 470.282C1613.24 470.282 1651.26 467.565 1690.87 467.565C1706.26 467.565 1721.66 467.565 1737.06 467.565C1774.68 467.565 1810.86 478.433 1848.45 478.433C1862.94 478.433 1877.43 478.433 1891.92 478.433C1897.67 478.433 1908.54 476.329 1913.66 479.037C1921.27 483.064 1922.35 489.301 1932.68 489.301" stroke="#2F2E2E" stroke-width="2" stroke-linecap="round"/>
</svg>
